<mxfile host="app.diagrams.net" modified="2020-12-17T09:34:04.972Z" agent="5.0 (Windows NT 10.0; Win64; x64) AppleWebKit/537.36 (KHTML, like Gecko) Chrome/87.0.4280.66 Safari/537.36" etag="AKPKIoTJ64dRmsDmnLAq" version="14.0.3" type="github">
  <diagram id="R2lEEEUBdFMjLlhIrx00" name="Page-1">
    <mxGraphModel dx="868" dy="423" grid="1" gridSize="10" guides="1" tooltips="1" connect="1" arrows="1" fold="1" page="1" pageScale="1" pageWidth="850" pageHeight="1100" math="0" shadow="0" extFonts="Permanent Marker^https://fonts.googleapis.com/css?family=Permanent+Marker">
      <root>
        <mxCell id="0" />
        <mxCell id="1" parent="0" />
        <mxCell id="_NPCcW1G6a9Sd7CFtrxQ-1" value="" style="rounded=0;whiteSpace=wrap;html=1;fillColor=#dae8fc;strokeColor=#6c8ebf;gradientColor=#7ea6e0;" vertex="1" parent="1">
          <mxGeometry x="30" y="120" width="500" height="580" as="geometry" />
        </mxCell>
        <mxCell id="_NPCcW1G6a9Sd7CFtrxQ-2" value="" style="rounded=0;whiteSpace=wrap;html=1;fillColor=#f8cecc;strokeColor=#b85450;gradientColor=#ea6b66;" vertex="1" parent="1">
          <mxGeometry x="50" y="210" width="420" height="120" as="geometry" />
        </mxCell>
        <mxCell id="_NPCcW1G6a9Sd7CFtrxQ-3" value="Header" style="text;html=1;align=center;verticalAlign=middle;resizable=0;points=[];autosize=1;" vertex="1" parent="1">
          <mxGeometry x="225" y="220" width="50" height="20" as="geometry" />
        </mxCell>
        <mxCell id="_NPCcW1G6a9Sd7CFtrxQ-4" value="Login" style="rounded=0;whiteSpace=wrap;html=1;fillColor=#fad7ac;strokeColor=#b46504;" vertex="1" parent="1">
          <mxGeometry x="370" y="275" width="70" height="45" as="geometry" />
        </mxCell>
        <mxCell id="_NPCcW1G6a9Sd7CFtrxQ-5" value="Registration" style="rounded=0;whiteSpace=wrap;html=1;fillColor=#fad7ac;strokeColor=#b46504;" vertex="1" parent="1">
          <mxGeometry x="210" y="275" width="80" height="45" as="geometry" />
        </mxCell>
        <mxCell id="_NPCcW1G6a9Sd7CFtrxQ-6" value="Dashboard" style="rounded=0;whiteSpace=wrap;html=1;fillColor=#fad7ac;strokeColor=#b46504;" vertex="1" parent="1">
          <mxGeometry x="60" y="275" width="70" height="45" as="geometry" />
        </mxCell>
        <mxCell id="_NPCcW1G6a9Sd7CFtrxQ-11" value="" style="rounded=0;whiteSpace=wrap;html=1;fillColor=#ffe6cc;strokeColor=#d79b00;" vertex="1" parent="1">
          <mxGeometry x="50" y="360" width="410" height="140" as="geometry" />
        </mxCell>
        <mxCell id="_NPCcW1G6a9Sd7CFtrxQ-13" value="DashBoard" style="text;html=1;align=center;verticalAlign=middle;resizable=0;points=[];autosize=1;" vertex="1" parent="1">
          <mxGeometry x="210" y="370" width="80" height="20" as="geometry" />
        </mxCell>
        <mxCell id="_NPCcW1G6a9Sd7CFtrxQ-14" value="" style="rounded=0;whiteSpace=wrap;html=1;fillColor=#dae8fc;strokeColor=#6c8ebf;" vertex="1" parent="1">
          <mxGeometry x="60" y="400" width="110" height="90" as="geometry" />
        </mxCell>
        <mxCell id="_NPCcW1G6a9Sd7CFtrxQ-15" value="" style="rounded=0;whiteSpace=wrap;html=1;fillColor=#dae8fc;strokeColor=#6c8ebf;" vertex="1" parent="1">
          <mxGeometry x="200" y="400" width="110" height="90" as="geometry" />
        </mxCell>
        <mxCell id="_NPCcW1G6a9Sd7CFtrxQ-93" value="" style="edgeStyle=orthogonalEdgeStyle;rounded=0;orthogonalLoop=1;jettySize=auto;html=1;" edge="1" parent="1" source="_NPCcW1G6a9Sd7CFtrxQ-16" target="_NPCcW1G6a9Sd7CFtrxQ-4">
          <mxGeometry relative="1" as="geometry" />
        </mxCell>
        <mxCell id="_NPCcW1G6a9Sd7CFtrxQ-16" value="" style="rounded=0;whiteSpace=wrap;html=1;fillColor=#dae8fc;strokeColor=#6c8ebf;" vertex="1" parent="1">
          <mxGeometry x="341.25" y="400" width="108.75" height="90" as="geometry" />
        </mxCell>
        <mxCell id="_NPCcW1G6a9Sd7CFtrxQ-17" value="Company name" style="rounded=0;whiteSpace=wrap;html=1;fillColor=#6d8764;strokeColor=#3A5431;fontColor=#ffffff;" vertex="1" parent="1">
          <mxGeometry x="70" y="410" width="90" height="20" as="geometry" />
        </mxCell>
        <mxCell id="_NPCcW1G6a9Sd7CFtrxQ-18" value="Company name" style="rounded=0;whiteSpace=wrap;html=1;fillColor=#6d8764;strokeColor=#3A5431;fontColor=#ffffff;" vertex="1" parent="1">
          <mxGeometry x="210" y="410" width="90" height="20" as="geometry" />
        </mxCell>
        <mxCell id="_NPCcW1G6a9Sd7CFtrxQ-19" value="Company name" style="rounded=0;whiteSpace=wrap;html=1;fillColor=#6d8764;strokeColor=#3A5431;fontColor=#ffffff;" vertex="1" parent="1">
          <mxGeometry x="347.5" y="410" width="92.5" height="20" as="geometry" />
        </mxCell>
        <mxCell id="_NPCcW1G6a9Sd7CFtrxQ-20" value="Add to Favourites" style="rounded=0;whiteSpace=wrap;html=1;fillColor=#cdeb8b;strokeColor=#36393d;" vertex="1" parent="1">
          <mxGeometry x="75" y="450" width="75" height="30" as="geometry" />
        </mxCell>
        <mxCell id="_NPCcW1G6a9Sd7CFtrxQ-21" value="Add to Favourites" style="rounded=0;whiteSpace=wrap;html=1;fillColor=#cdeb8b;strokeColor=#36393d;" vertex="1" parent="1">
          <mxGeometry x="210" y="450" width="90" height="30" as="geometry" />
        </mxCell>
        <mxCell id="_NPCcW1G6a9Sd7CFtrxQ-22" value="Add to Favourites" style="rounded=0;whiteSpace=wrap;html=1;fillColor=#cdeb8b;strokeColor=#36393d;" vertex="1" parent="1">
          <mxGeometry x="348.75" y="450" width="91.25" height="30" as="geometry" />
        </mxCell>
        <mxCell id="_NPCcW1G6a9Sd7CFtrxQ-28" value="" style="rounded=0;whiteSpace=wrap;html=1;fillColor=#d5e8d4;strokeColor=#82b366;gradientColor=#97d077;" vertex="1" parent="1">
          <mxGeometry x="60" y="540" width="390" height="120" as="geometry" />
        </mxCell>
        <mxCell id="_NPCcW1G6a9Sd7CFtrxQ-44" value="" style="line;strokeWidth=2;html=1;" vertex="1" parent="1">
          <mxGeometry x="450" y="600" width="40" height="10" as="geometry" />
        </mxCell>
        <mxCell id="_NPCcW1G6a9Sd7CFtrxQ-47" style="edgeStyle=orthogonalEdgeStyle;rounded=0;orthogonalLoop=1;jettySize=auto;html=1;exitX=0.037;exitY=0.4;exitDx=0;exitDy=0;exitPerimeter=0;entryX=1;entryY=1;entryDx=0;entryDy=0;" edge="1" parent="1" source="_NPCcW1G6a9Sd7CFtrxQ-45" target="_NPCcW1G6a9Sd7CFtrxQ-4">
          <mxGeometry relative="1" as="geometry">
            <Array as="points">
              <mxPoint x="485" y="321" />
              <mxPoint x="485" y="320" />
            </Array>
          </mxGeometry>
        </mxCell>
        <mxCell id="_NPCcW1G6a9Sd7CFtrxQ-45" value="" style="line;strokeWidth=2;direction=south;html=1;" vertex="1" parent="1">
          <mxGeometry x="480" y="320" width="10" height="290" as="geometry" />
        </mxCell>
        <mxCell id="_NPCcW1G6a9Sd7CFtrxQ-48" value="if user is &lt;br&gt;not logged in" style="text;html=1;align=center;verticalAlign=middle;resizable=0;points=[];autosize=1;" vertex="1" parent="1">
          <mxGeometry x="400" y="510" width="80" height="30" as="geometry" />
        </mxCell>
        <mxCell id="_NPCcW1G6a9Sd7CFtrxQ-49" value="Favorite List" style="text;html=1;align=center;verticalAlign=middle;resizable=0;points=[];autosize=1;" vertex="1" parent="1">
          <mxGeometry x="195" y="540" width="80" height="20" as="geometry" />
        </mxCell>
        <mxCell id="_NPCcW1G6a9Sd7CFtrxQ-51" value="Fav 1" style="shape=ext;double=1;rounded=0;whiteSpace=wrap;html=1;gradientColor=#ffa500;fillColor=#ffcd28;strokeColor=#d79b00;" vertex="1" parent="1">
          <mxGeometry x="72.5" y="570" width="257.5" height="30" as="geometry" />
        </mxCell>
        <mxCell id="_NPCcW1G6a9Sd7CFtrxQ-52" value="Fav2" style="shape=ext;double=1;rounded=0;whiteSpace=wrap;html=1;gradientColor=#ffa500;fillColor=#ffcd28;strokeColor=#d79b00;" vertex="1" parent="1">
          <mxGeometry x="72.5" y="610" width="257.5" height="30" as="geometry" />
        </mxCell>
        <mxCell id="_NPCcW1G6a9Sd7CFtrxQ-53" value="Del" style="rounded=1;whiteSpace=wrap;html=1;fillColor=#e51400;strokeColor=#B20000;fontColor=#ffffff;" vertex="1" parent="1">
          <mxGeometry x="360" y="570" width="60" height="27.5" as="geometry" />
        </mxCell>
        <mxCell id="_NPCcW1G6a9Sd7CFtrxQ-54" value="Del" style="rounded=1;whiteSpace=wrap;html=1;fillColor=#e51400;strokeColor=#B20000;fontColor=#ffffff;" vertex="1" parent="1">
          <mxGeometry x="360" y="615" width="60" height="25" as="geometry" />
        </mxCell>
        <mxCell id="_NPCcW1G6a9Sd7CFtrxQ-55" value="" style="rounded=0;whiteSpace=wrap;html=1;fillColor=#fff2cc;strokeColor=#d6b656;" vertex="1" parent="1">
          <mxGeometry x="560" y="120" width="180" height="580" as="geometry" />
        </mxCell>
        <mxCell id="_NPCcW1G6a9Sd7CFtrxQ-56" value="" style="line;strokeWidth=2;html=1;" vertex="1" parent="1">
          <mxGeometry x="440" y="280" width="150" height="10" as="geometry" />
        </mxCell>
        <mxCell id="_NPCcW1G6a9Sd7CFtrxQ-58" value="" style="line;strokeWidth=2;html=1;" vertex="1" parent="1">
          <mxGeometry x="290" y="292.5" width="40" height="10" as="geometry" />
        </mxCell>
        <mxCell id="_NPCcW1G6a9Sd7CFtrxQ-59" value="" style="line;strokeWidth=2;direction=south;html=1;" vertex="1" parent="1">
          <mxGeometry x="320" y="250" width="10" height="50" as="geometry" />
        </mxCell>
        <mxCell id="_NPCcW1G6a9Sd7CFtrxQ-60" value="" style="line;strokeWidth=2;html=1;" vertex="1" parent="1">
          <mxGeometry x="320" y="250" width="240" height="10" as="geometry" />
        </mxCell>
        <mxCell id="_NPCcW1G6a9Sd7CFtrxQ-62" value="Add New User" style="text;html=1;align=center;verticalAlign=middle;resizable=0;points=[];autosize=1;" vertex="1" parent="1">
          <mxGeometry x="347.5" y="230" width="90" height="20" as="geometry" />
        </mxCell>
        <mxCell id="_NPCcW1G6a9Sd7CFtrxQ-63" style="edgeStyle=orthogonalEdgeStyle;rounded=0;orthogonalLoop=1;jettySize=auto;html=1;exitX=0;exitY=0.5;exitDx=0;exitDy=0;exitPerimeter=0;" edge="1" parent="1">
          <mxGeometry relative="1" as="geometry">
            <mxPoint x="515" y="254.5" as="sourcePoint" />
            <mxPoint x="560" y="254.5" as="targetPoint" />
            <Array as="points">
              <mxPoint x="535" y="254.5" />
              <mxPoint x="535" y="254.5" />
            </Array>
          </mxGeometry>
        </mxCell>
        <mxCell id="_NPCcW1G6a9Sd7CFtrxQ-66" style="edgeStyle=orthogonalEdgeStyle;rounded=0;orthogonalLoop=1;jettySize=auto;html=1;exitX=0;exitY=0.5;exitDx=0;exitDy=0;exitPerimeter=0;" edge="1" parent="1">
          <mxGeometry relative="1" as="geometry">
            <mxPoint x="485" y="319" as="sourcePoint" />
            <mxPoint x="440" y="319" as="targetPoint" />
            <Array as="points">
              <mxPoint x="469" y="319" />
              <mxPoint x="469" y="319" />
            </Array>
          </mxGeometry>
        </mxCell>
        <mxCell id="_NPCcW1G6a9Sd7CFtrxQ-68" value="Request for token" style="text;html=1;align=center;verticalAlign=middle;resizable=0;points=[];autosize=1;" vertex="1" parent="1">
          <mxGeometry x="450" y="265" width="110" height="20" as="geometry" />
        </mxCell>
        <mxCell id="_NPCcW1G6a9Sd7CFtrxQ-69" style="edgeStyle=orthogonalEdgeStyle;rounded=0;orthogonalLoop=1;jettySize=auto;html=1;exitX=0;exitY=0.5;exitDx=0;exitDy=0;exitPerimeter=0;" edge="1" parent="1">
          <mxGeometry relative="1" as="geometry">
            <mxPoint x="485" y="319" as="sourcePoint" />
            <mxPoint x="440" y="319" as="targetPoint" />
            <Array as="points">
              <mxPoint x="469.38" y="319.5" />
              <mxPoint x="469.38" y="319.5" />
            </Array>
          </mxGeometry>
        </mxCell>
        <mxCell id="_NPCcW1G6a9Sd7CFtrxQ-70" style="edgeStyle=orthogonalEdgeStyle;rounded=0;orthogonalLoop=1;jettySize=auto;html=1;exitX=0.008;exitY=0.944;exitDx=0;exitDy=0;exitPerimeter=0;" edge="1" parent="1" source="_NPCcW1G6a9Sd7CFtrxQ-75">
          <mxGeometry relative="1" as="geometry">
            <mxPoint x="485" y="302.5" as="sourcePoint" />
            <mxPoint x="440" y="302.5" as="targetPoint" />
            <Array as="points">
              <mxPoint x="586" y="303" />
              <mxPoint x="600" y="303" />
            </Array>
          </mxGeometry>
        </mxCell>
        <mxCell id="_NPCcW1G6a9Sd7CFtrxQ-75" value="" style="shape=ext;double=1;rounded=0;whiteSpace=wrap;html=1;fillColor=#cce5ff;strokeColor=#36393d;" vertex="1" parent="1">
          <mxGeometry x="585" y="180" width="125" height="150" as="geometry" />
        </mxCell>
        <mxCell id="_NPCcW1G6a9Sd7CFtrxQ-76" value="User Service" style="text;html=1;align=center;verticalAlign=middle;resizable=0;points=[];autosize=1;" vertex="1" parent="1">
          <mxGeometry x="610" y="190" width="80" height="20" as="geometry" />
        </mxCell>
        <mxCell id="_NPCcW1G6a9Sd7CFtrxQ-78" style="edgeStyle=orthogonalEdgeStyle;rounded=0;orthogonalLoop=1;jettySize=auto;html=1;exitX=0;exitY=0.5;exitDx=0;exitDy=0;exitPerimeter=0;" edge="1" parent="1">
          <mxGeometry relative="1" as="geometry">
            <mxPoint x="540" y="285" as="sourcePoint" />
            <mxPoint x="590" y="285" as="targetPoint" />
            <Array as="points">
              <mxPoint x="569.38" y="285.5" />
              <mxPoint x="569.38" y="285.5" />
            </Array>
          </mxGeometry>
        </mxCell>
        <mxCell id="_NPCcW1G6a9Sd7CFtrxQ-79" value="Reutrn token" style="text;html=1;align=center;verticalAlign=middle;resizable=0;points=[];autosize=1;" vertex="1" parent="1">
          <mxGeometry x="480" y="302.5" width="80" height="20" as="geometry" />
        </mxCell>
        <mxCell id="_NPCcW1G6a9Sd7CFtrxQ-81" value="JWT Validator" style="rounded=1;whiteSpace=wrap;html=1;fillColor=#ffe6cc;strokeColor=#d79b00;" vertex="1" parent="1">
          <mxGeometry x="592.5" y="265" width="110" height="50" as="geometry" />
        </mxCell>
        <mxCell id="_NPCcW1G6a9Sd7CFtrxQ-82" value="DashBoard Service" style="shape=ext;double=1;rounded=0;whiteSpace=wrap;html=1;fillColor=#cce5ff;strokeColor=#36393d;" vertex="1" parent="1">
          <mxGeometry x="590" y="370" width="120" height="80" as="geometry" />
        </mxCell>
        <mxCell id="_NPCcW1G6a9Sd7CFtrxQ-83" value="Service" style="shape=ext;double=1;rounded=0;whiteSpace=wrap;html=1;fillColor=#cce5ff;strokeColor=#36393d;" vertex="1" parent="1">
          <mxGeometry x="587.5" y="510" width="120" height="80" as="geometry" />
        </mxCell>
        <mxCell id="_NPCcW1G6a9Sd7CFtrxQ-84" value="MY SQL DB" style="shape=cylinder3;whiteSpace=wrap;html=1;boundedLbl=1;backgroundOutline=1;size=15;gradientColor=#d5739d;fillColor=#e6d0de;strokeColor=#996185;" vertex="1" parent="1">
          <mxGeometry x="790" y="212.5" width="100" height="80" as="geometry" />
        </mxCell>
        <mxCell id="_NPCcW1G6a9Sd7CFtrxQ-85" value="MONGO DB" style="shape=cylinder3;whiteSpace=wrap;html=1;boundedLbl=1;backgroundOutline=1;size=15;gradientColor=#d5739d;fillColor=#e6d0de;strokeColor=#996185;" vertex="1" parent="1">
          <mxGeometry x="790" y="370" width="110" height="80" as="geometry" />
        </mxCell>
        <mxCell id="_NPCcW1G6a9Sd7CFtrxQ-86" value="External API" style="ellipse;whiteSpace=wrap;html=1;gradientColor=#d5739d;fillColor=#e6d0de;strokeColor=#996185;" vertex="1" parent="1">
          <mxGeometry x="790" y="510" width="120" height="70" as="geometry" />
        </mxCell>
        <mxCell id="_NPCcW1G6a9Sd7CFtrxQ-87" value="" style="shape=singleArrow;whiteSpace=wrap;html=1;arrowWidth=0.44;arrowSize=0.5;gradientColor=#97d077;fillColor=#d5e8d4;strokeColor=#82b366;" vertex="1" parent="1">
          <mxGeometry x="710" y="242.5" width="80" height="25" as="geometry" />
        </mxCell>
        <mxCell id="_NPCcW1G6a9Sd7CFtrxQ-88" value="" style="shape=singleArrow;whiteSpace=wrap;html=1;arrowWidth=0.44;arrowSize=0.5;gradientColor=#97d077;fillColor=#d5e8d4;strokeColor=#82b366;" vertex="1" parent="1">
          <mxGeometry x="710" y="397.5" width="80" height="25" as="geometry" />
        </mxCell>
        <mxCell id="_NPCcW1G6a9Sd7CFtrxQ-89" value="" style="shape=singleArrow;whiteSpace=wrap;html=1;arrowWidth=0.44;arrowSize=0.5;gradientColor=#97d077;fillColor=#d5e8d4;strokeColor=#82b366;" vertex="1" parent="1">
          <mxGeometry x="707.5" y="532.5" width="80" height="25" as="geometry" />
        </mxCell>
        <mxCell id="_NPCcW1G6a9Sd7CFtrxQ-90" value="External API" style="ellipse;whiteSpace=wrap;html=1;align=center;dashed=1;fillColor=#008a00;strokeColor=#005700;fontColor=#ffffff;" vertex="1" parent="1">
          <mxGeometry x="50" y="155" width="100" height="40" as="geometry" />
        </mxCell>
        <mxCell id="_NPCcW1G6a9Sd7CFtrxQ-92" value="" style="shape=singleArrow;direction=south;whiteSpace=wrap;html=1;fillColor=#eeeeee;strokeColor=#36393d;" vertex="1" parent="1">
          <mxGeometry x="82.5" y="195" width="25" height="80" as="geometry" />
        </mxCell>
        <mxCell id="_NPCcW1G6a9Sd7CFtrxQ-94" value="Front End" style="text;html=1;align=center;verticalAlign=middle;resizable=0;points=[];autosize=1;" vertex="1" parent="1">
          <mxGeometry x="240" y="720" width="70" height="20" as="geometry" />
        </mxCell>
        <mxCell id="_NPCcW1G6a9Sd7CFtrxQ-95" value="Back End" style="text;html=1;align=center;verticalAlign=middle;resizable=0;points=[];autosize=1;" vertex="1" parent="1">
          <mxGeometry x="612.5" y="720" width="70" height="20" as="geometry" />
        </mxCell>
      </root>
    </mxGraphModel>
  </diagram>
</mxfile>
